<svg width="55" height="13" viewBox="0 0 55 13" fill="none" xmlns="http://www.w3.org/2000/svg">
<path d="M0.263883 12.112V0.855999H4.30988C8.59388 0.855999 10.1059 3.362 10.1059 6.47C10.1059 10.25 7.97788 12.112 4.30988 12.112H0.263883ZM4.18388 3.012H2.85388V9.956H4.21188C6.29788 9.956 7.38988 8.878 7.38988 6.484C7.38988 4.426 6.59188 3.012 4.18388 3.012ZM21.5453 11.23C20.7333 11.818 18.9973 12.336 17.1493 12.336C13.3973 12.336 11.3673 10.152 11.3673 6.484C11.3673 2.872 13.5513 0.631999 17.3033 0.631999C19.0813 0.631999 20.4813 1.094 21.2933 1.668L20.7753 4.048C19.9773 3.376 18.9273 2.928 17.4993 2.928C15.2033 2.928 14.0693 4.286 14.0693 6.484C14.0693 8.808 15.2453 10.04 17.4853 10.04C18.0873 10.04 18.6753 9.956 19.2213 9.816V7.772H16.7993V5.77H21.5453V11.23ZM28.4188 12.336C25.1848 12.336 23.0568 10.124 23.0568 6.484C23.0568 2.844 25.1848 0.631999 28.4188 0.631999C31.6528 0.631999 33.7948 2.844 33.7948 6.484C33.7948 10.124 31.6528 12.336 28.4188 12.336ZM28.4188 10.04C30.0708 10.04 31.0788 8.71 31.0788 6.484C31.0788 4.258 30.0708 2.928 28.4188 2.928C26.7668 2.928 25.7588 4.244 25.7588 6.484C25.7588 8.696 26.7668 10.04 28.4188 10.04ZM37.7891 12.112V8.094L33.8691 0.855999H36.8511L39.1331 5.658L41.4011 0.855999H44.3131L40.3791 8.108V12.112H37.7891ZM43.3614 12.112L47.4214 0.855999H50.6834L54.7434 12.112H51.8594L51.1034 9.76H46.9314L46.1754 12.112H43.3614ZM47.6174 7.618H50.4174L49.0174 3.236L47.6174 7.618Z" fill="black"/>
</svg>
